<svg width="36" height="36" viewBox="0 0 36 36" fill="none" xmlns="http://www.w3.org/2000/svg">
<path d="M0 18C0 8.05888 8.05888 0 18 0C27.9411 0 36 8.05888 36 18C36 27.9411 27.9411 36 18 36C8.05888 36 0 27.9411 0 18Z" fill="white"/>
<path d="M18.1167 14.35H13.725C12.175 14.35 11.8251 15.125 11.6334 16.0833L10.925 19.4583H20.925L20.2167 16.0833C20.0084 15.125 19.6667 14.35 18.1167 14.35Z" stroke="#212121" stroke-width="1.25" stroke-linecap="round" stroke-linejoin="round"/>
<path d="M22.1585 24.9667C22.2252 25.7 21.6419 26.3333 20.8919 26.3333H19.7168C19.0418 26.3333 18.9502 26.0417 18.8252 25.6917L18.7002 25.3167C18.5252 24.8084 18.4085 24.4583 17.5085 24.4583H14.3085C13.4085 24.4583 13.2752 24.85 13.1168 25.3167L12.9919 25.6917C12.8752 26.05 12.7835 26.3333 12.1002 26.3333H10.9252C10.1752 26.3333 9.58352 25.7 9.65852 24.9667L10.0085 21.1583C10.1002 20.2167 10.2752 19.45 11.9168 19.45H19.8919C21.5335 19.45 21.7085 20.2167 21.8002 21.1583L22.1585 24.9667Z" stroke="#212121" stroke-width="1.25" stroke-linecap="round" stroke-linejoin="round"/>
<path d="M10.9167 17.5833H10.2917" stroke="#212121" stroke-width="1.25" stroke-linecap="round" stroke-linejoin="round"/>
<path d="M21.5417 17.5833H20.9167" stroke="#212121" stroke-width="1.25" stroke-linecap="round" stroke-linejoin="round"/>
<path d="M12.1667 21.9583H14.0417" stroke="#212121" stroke-width="1.25" stroke-linecap="round" stroke-linejoin="round"/>
<path d="M17.7917 21.9583H19.6667" stroke="#212121" stroke-width="1.25" stroke-linecap="round" stroke-linejoin="round"/>
<path d="M23.5919 15.2833C23.8252 14.7416 23.7418 14.0083 23.3085 13.3667C22.8835 12.725 22.2335 12.3667 21.6418 12.375" stroke="#212121" stroke-width="1.25" stroke-linecap="round" stroke-linejoin="round"/>
<path d="M26.1834 16.1083C26.5334 14.85 26.2834 13.3084 25.3917 11.975C24.5 10.6417 23.1667 9.82501 21.8667 9.66667" stroke="#212121" stroke-width="1.25" stroke-linecap="round" stroke-linejoin="round"/>
</svg>
