<svg width="33" height="32" viewBox="0 0 33 32" fill="none" xmlns="http://www.w3.org/2000/svg">
<path d="M5.83427 20.4094C3.47651 20.4094 1.6084 22.3294 1.6084 24.6306V24.6353H10.0555C10.0555 24.6353 10.0555 24.6353 10.0555 24.6306C10.0555 22.3058 8.16355 20.4094 5.83427 20.4094Z" fill="#383838"/>
<path d="M26.7378 24.6117H31.7261C31.7261 22.5553 30.2013 20.847 28.2155 20.5647C27.8577 21.8918 27.3589 23.2517 26.7378 24.6117Z" fill="#383838"/>
<path d="M5.82973 27.5012C7.07215 27.5012 8.12638 26.6965 8.49334 25.5765H3.17578C3.54274 26.6965 4.59214 27.5012 5.82973 27.5012Z" fill="#383838"/>
<path d="M27.3259 27.5012C28.5778 27.5012 29.6366 26.6823 29.9941 25.5529H24.6577C25.0201 26.6823 26.0789 27.5012 27.3259 27.5012Z" fill="#383838"/>
<path d="M28.3709 17.6753C28.1685 17.6753 27.9803 17.727 27.8107 17.8118V17.8071C27.9803 16.5364 28.018 15.28 27.9238 14.0424C27.9238 14.0282 27.9332 14.0189 27.9332 14.0047C27.9332 13.9718 27.9192 13.9388 27.9144 13.9059C27.7308 11.7553 27.1425 9.6565 26.1545 7.62352C27.3356 7.4729 28.2533 6.4706 28.2533 5.25174V4.9694C28.2533 4.7059 28.0414 4.49881 27.7827 4.49881H7.62738C4.53088 4.49881 2.01318 7.01645 2.01318 10.113V21.1624C2.95919 20.1224 4.32385 19.4682 5.83441 19.4682C8.67679 19.4682 10.9872 21.7741 10.9969 24.6117H25.4061C25.5897 24.6117 25.7544 24.5082 25.8296 24.3388C26.4838 22.9271 26.992 21.5247 27.345 20.1741C27.3732 20.0564 27.4061 19.9435 27.4298 19.8258C27.6651 20.08 27.9992 20.2447 28.3709 20.2447H29.7544V17.6753H28.3709ZM15.265 21.727H12.3521V17.8447C12.3521 16.1929 11.0109 14.8517 9.36383 14.8517H8.76157V8.94119C8.76157 8.23531 9.34016 7.6565 10.0509 7.6565H15.265V21.727ZM21.7827 21.727H19.5614V17.6753C20.1354 17.6753 20.6062 17.2208 20.6062 16.6306C20.6062 16.0518 20.1403 15.5858 19.5614 15.5858H16.2062V7.6565H21.7827V21.727ZM25.1474 16.7247H23.9098C23.6508 16.7247 23.4392 16.5177 23.4392 16.2542C23.4392 15.9953 23.6508 15.7836 23.9098 15.7836H25.1474C25.4061 15.7836 25.618 15.9953 25.618 16.2542C25.618 16.5177 25.4061 16.7247 25.1474 16.7247ZM22.7239 13.5341V7.6565H25.1145C26.112 9.57647 26.7239 11.5294 26.9498 13.5341H22.7239Z" fill="#383838"/>
</svg>
