<svg width="25" height="25" viewBox="0 0 25 25" fill="none" xmlns="http://www.w3.org/2000/svg">
<path d="M0 12.5C0 5.59644 5.59644 0 12.5 0C19.4036 0 25 5.59644 25 12.5C25 19.4036 19.4036 25 12.5 25C5.59644 25 0 19.4036 0 12.5Z" fill="#FEF4E1"/>
<g clip-path="url(#clip0_974_8149)">
<path d="M19.1668 12.5H17.8068C17.5668 9.96004 15.5402 7.92671 13.0002 7.69337V6.33337C13.0002 6.06004 12.7735 5.83337 12.5002 5.83337C12.2268 5.83337 12.0002 6.06004 12.0002 6.33337V7.69337C9.46016 7.93337 7.42683 9.96004 7.1935 12.5H5.8335C5.56016 12.5 5.3335 12.7267 5.3335 13C5.3335 13.2734 5.56016 13.5 5.8335 13.5H7.1935C7.4335 16.04 9.46016 18.0734 12.0002 18.3067V19.6667C12.0002 19.94 12.2268 20.1667 12.5002 20.1667C12.7735 20.1667 13.0002 19.94 13.0002 19.6667V18.3067C15.5402 18.0667 17.5735 16.04 17.8068 13.5H19.1668C19.4402 13.5 19.6668 13.2734 19.6668 13C19.6668 12.7267 19.4402 12.5 19.1668 12.5ZM12.5002 15.08C11.3535 15.08 10.4202 14.1467 10.4202 13C10.4202 11.8534 11.3535 10.92 12.5002 10.92C13.6468 10.92 14.5802 11.8534 14.5802 13C14.5802 14.1467 13.6468 15.08 12.5002 15.08Z" fill="#F1A309"/>
</g>
<defs>
<clipPath id="clip0_974_8149">
<rect width="16" height="16" fill="white" transform="translate(4.5 5)"/>
</clipPath>
</defs>
</svg>
